<svg xmlns="http://www.w3.org/2000/svg" width="435.047" height="435.047" viewBox="0 0 435.047 435.047"><path fill="#E2F1FD" d="M202.01 205.437c-6.5-2.273-9.218-3.666-9.218-6.39 0-4.858 5.02-6.144 7.68-6.144 5.096 0 6.142 2.068 6.142 5.172v.242c0 2.232 1.81 4.043 4.04 4.043h1.04c2.23 0 4.04-1.807 4.04-4.04l.007-7.01c0-1.132-.47-2.214-1.3-2.98-2.53-2.325-5.82-3.616-10-3.923v-4.598c0-2.24-1.81-4.05-4.04-4.05h-.97c-2.23 0-4.04 1.81-4.04 4.04v4.92c-6.1 1.68-11.88 7.243-11.88 14.64 0 8.82 7.78 11.48 14.64 13.83 7.117 2.435 10.093 4.02 10.093 7.505 0 5.04-5.235 6.386-8.327 6.386-3.125 0-6.99-.89-8.036-2.36-.46-.654-.767-1.926-.917-3.785-.17-2.096-1.922-3.713-4.026-3.713h-.82c-1.08 0-2.11.43-2.872 1.197-.756.765-1.18 1.8-1.17 2.88l.065 7.95c.014 1.8 1.217 3.37 2.95 3.855.176.05.41.102.645.153l.19.04c3.604 1.005 6.863 1.876 9.468 2.206v6.69c0 2.23 1.81 4.04 4.04 4.04h.974c2.23 0 4.04-1.81 4.04-4.04v-6.835c6.716-1.414 13.093-6.98 13.093-14.826-.002-9.677-8.603-12.687-15.514-15.107z"/><path fill="#E2F1FD" d="M410.734 74.918V0c-21.198 9.292-61.076 22.585-79.635 23.64-18.56 1.057-105.78-12.638-129.41-6.724-19.02 4.76-123.43 83.334-154.58 105.002-49.723 34.593-5.72 40.138 15.16 32.136 21.006-8.052 88.71-45.87 88.71-45.87-.214 7.66.944 18.507 7.797 30.218 0 0 7.75 10.864 17.036 21.5-20.04 9.136-34.006 29.35-34.006 52.772 0 19.896 10.08 37.48 25.398 47.926H67.01c-5.55 0-10.05 4.498-10.05 10.047v154.35c0 5.553 4.5 10.05 10.05 10.05h265.56c5.55 0 10.05-4.497 10.05-10.05v-154.35c0-5.55-4.496-10.047-10.044-10.047H232.37c15.317-10.445 25.396-28.03 25.396-47.926 0-14.54-5.394-27.838-14.27-38.025-.106-.09-.2-.19-.29-.29 14.483-7.22 29.705-20.15 66.56-35.23 62.073-25.39 83.097-54.226 100.968-64.225zm-171.012 58.778c-11.633 8.212-19.572 16.233-24.203 23.19-2.62-.737-5.3-1.295-8.04-1.664-2.4-7.765-6.52-17.98-12.8-31.504 0 0-2.88-6.78-1.93-14.885 2.37-9.058 10.55-18.772 33.66-21.755 38.92-5.022 44.44 14.654 26.85 35.14-3.757 3.89-8.29 7.765-13.55 11.478zm5.478 150.848c5.52 0 10.014 4.49 10.014 10.013 0 5.52-4.49 10.012-10.014 10.012h-90.814c-5.52 0-10.012-4.5-10.012-10.02s4.49-10.018 10.012-10.018H245.2zm-45.407-29.168c-23.547 0-42.705-19.155-42.705-42.703 0-23.547 19.158-42.703 42.705-42.703 3.474 0 6.847.426 10.08 1.213-.004 6.768 5.263 10.63 13.95 9.77 1.333-.13 2.627-.315 3.892-.55 9.042 7.838 14.78 19.393 14.78 32.27 0 23.548-19.155 42.703-42.702 42.703z"/></svg>
