<svg xmlns="http://www.w3.org/2000/svg" width="124.915" height="124.915" viewBox="0 0 124.915 124.915"><path fill="#E2F1FD" d="M63.643 31.73l-1.797 1.64-2.37-2.23c-.492-.084-.974-.19-1.445-.324-.97.444-2.14 1.05-3.35 1.76.09-.518.09-1.043-.02-1.554.54-.312 1.07-.6 1.58-.872-2.76-1.265-5-3.47-6.32-6.207-.73.444-1.44.897-2.12 1.36-.99-.573-1.96-1.118-2.71-1.546-1.27 2.762-3.48 4.996-6.23 6.303 2.25 1.167 7.71 4.193 9.23 5.264.33.232.69.393 1.06.52v22.12c0 1.9.31 3.71.88 5.36-.01.175-.02.353-.02.533v4.967h.03c0 .072-.02.14-.02.212v43.685c0 2.98 2.416 5.4 5.394 5.4s5.39-2.41 5.39-5.39V69.04c0-.073-.02-.14-.02-.21h.81c-.003.07-.022.14-.022.21v43.685c0 2.98 2.417 5.394 5.39 5.394h.005c2.976 0 5.39-2.42 5.39-5.39V69.04c0-.08-.02-.14-.02-.22h.06l.01-5.65s.95-1.28.95-5.91c0-2.49.25-11.77.25-11.77l.03-10.146c-.054-.024-7.714-4.22-7.714-4.22l-2.232.593zm-27.897-.264l-2.37 1.817-1.797-1.642c-3.93 1.79-8.65 4.02-8.71 4.05-.69.33-1.42.49-2.18.49-.84 0-1.64-.22-2.36-.59l-.02.02c-4.54-3.64-8.33-9.95-9.66-12.66-1.1-2.26-3.83-3.21-6.1-2.11s-3.21 3.83-2.11 6.1c.8 1.66 8.18 16.28 19.31 19.77.64.2 1.28.35 1.93.47.07 2.81.2 8.22.2 10.03 0 4.63.95 5.91.95 5.91v5.65h.08c0 .07-.02.14-.02.218v43.69c0 2.975 2.413 5.39 5.39 5.39s5.39-2.417 5.39-5.396v-43.7c0-.07-.02-.14-.02-.214h.81c-.006.07-.025.14-.025.215v43.684c0 2.98 2.41 5.39 5.39 5.39 2.98 0 5.39-2.41 5.39-5.39V68.96c0-.074-.02-.143-.02-.217h.01v-4.967c0-.18-.01-.358-.026-.534.57-1.66.875-3.47.875-5.36V35.34c-1.94.156-7.776-4.08-8.493-4.407-.47.137-1.37.45-1.86.53z"/><path fill="#E2F1FD" d="M20.55 34.73c.607 0 1.225-.13 1.81-.41.06-.027 3.842-1.814 7.453-3.473-3.227-.896-5.945-3.004-7.643-5.806-1.876.88-3.286 1.55-3.435 1.62-2.118 1-3.023 3.53-2.024 5.65.73 1.54 2.25 2.43 3.84 2.43z"/><circle fill="#E2F1FD" cx="61.848" cy="18.55" r="11.751"/><circle fill="#E2F1FD" cx="33.508" cy="18.55" r="11.751"/><path fill="#E2F1FD" d="M93.65 30.79c3.648 1.675 7.518 3.503 7.58 3.53.585.278 1.202.408 1.81.408 1.588 0 3.11-.896 3.835-2.43 1-2.116.097-4.645-2.02-5.645-.16-.075-1.693-.8-3.707-1.74-1.654 2.804-4.32 4.934-7.498 5.877z"/><circle fill="#E2F1FD" cx="90.188" cy="18.55" r="11.751"/><path fill="#E2F1FD" d="M122.35 19.903c-2.262-1.104-4.993-.162-6.1 2.1-1.46 2.99-5.895 10.324-11.038 13.674-.715.374-1.515.59-2.347.59-.755 0-1.487-.165-2.173-.488-.063-.04-4.782-2.26-8.71-4.05l-1.796 1.64-2.37-2.23c-.49-.09-.975-.19-1.444-.33-.98.44-2.146 1.05-3.353 1.76.08-.52.08-1.05-.02-1.56.53-.31 1.06-.6 1.58-.87-2.77-1.27-5.01-3.47-6.33-6.21-.73.44-1.45.9-2.13 1.36-1-.57-1.96-1.12-2.72-1.55-1.28 2.76-3.49 4.99-6.23 6.3 2.24 1.16 7.7 4.19 9.22 5.26.33.23.68.39 1.05.52v22.12c0 1.9.3 3.71.87 5.36-.02.17-.03.35-.03.53v4.97h.03c-.007.07-.02.14-.02.21v43.69c0 2.98 2.41 5.39 5.39 5.39 2.98 0 5.39-2.41 5.39-5.39V69.02c0-.074-.02-.14-.02-.213h.81c-.008.07-.02.14-.02.21l-.01 43.69c0 2.98 2.415 5.393 5.39 5.393h.003c2.98 0 5.394-2.414 5.394-5.39l.003-43.69c0-.07-.02-.14-.02-.21h.06l.01-5.642s.953-1.27.953-5.91c0-2.01.162-8.45.23-10.85.54-.05 1.084-.13 1.63-.25l.04.02.02-.03c.52-.11 1.05-.23 1.57-.4 11.13-3.48 18.504-18.1 19.31-19.76 1.1-2.26.152-4.99-2.11-6.09z"/></svg>
