<svg width="763" height="77" viewBox="0 0 763 77" xmlns="http://www.w3.org/2000/svg"><title>logo-text</title><g fill="#FFF" fill-rule="evenodd"><path d="M7.86 7.763V28.75h9.305c5.02 0 8.477-2.358 10.38-7.085.395-.986.594-2.168.594-3.542 0-4.338-2.26-7.54-6.78-9.62-1.11-.494-2.41-.74-3.88-.74H7.86zM4.536 2h13.7c5.335 0 9.892 2.714 13.667 8.14C33.3 12.915 34 15.42 34 17.655v1.048c0 4.907-2.26 9.14-6.774 12.7-3.062 2.075-6.06 3.114-8.99 3.114H7.86V55.35c0 1.43-.95 2.31-2.85 2.65h-.16c-1.53 0-2.48-.987-2.85-2.96V5.27C2.238 3.09 3.083 2 4.535 2zm35.17 19c1.708.433 2.564 1.202 2.564 2.306v14.446c0 6.174 1.758 10.32 5.274 12.432 2.238 1.704 4.728 2.558 7.473 2.558 5.247 0 9.21-2.705 11.88-8.11.554-1.75.833-3.504.833-5.258V23.7c.36-1.8 1.262-2.7 2.707-2.7 1.707.382 2.563 1.236 2.563 2.558v32.136c0 1.2-.856 1.97-2.563 2.306h-.144c-1.71-.313-2.563-1.163-2.563-2.558v-2.557h-.147C63.827 56.295 59.773 58 55.416 58h-.94c-5.608 0-10.483-2.75-14.626-8.248-1.9-2.956-2.85-6.595-2.85-10.918V24.098C37.217 22.032 38.12 21 39.707 21M83.97 37.263h28.06c0-2.004-1.173-4.59-3.512-7.767-3.2-3.017-6.36-4.528-9.482-4.528h-1.603c-4.683 0-8.532 2.293-11.55 6.872-1.04 1.82-1.677 3.628-1.912 5.423M97.87 19c7.7 0 13.683 3.653 17.952 10.965 1.455 2.862 2.183 5.972 2.183 9.328v.74c-.34 1.95-1.263 2.93-2.77 2.93H84.44c1.142 3.875 3.615 6.843 7.415 8.897 2.235.858 4.33 1.285 6.28 1.285 2.265 0 4.855-.728 7.767-2.184h.858c1.745.34 2.616 1.23 2.616 2.66v.43c0 2.4-3.5 4.05-10.5 4.96h-1.012c-7.18 0-12.93-3.35-17.25-10.07C78.87 45.76 78 42.44 78 38.98c0-7.312 3.46-13.138 10.382-17.482C91.738 19.833 94.897 19 97.864 19m27.08 0c1.857.47 2.788 1.304 2.788 2.503v3.208c4.24-3.8 8.878-5.71 13.903-5.71 5.525 0 10.424 2.3 14.69 6.88 3.117 3.84 4.675 7.87 4.675 12.09v18.57c0 1.28-.93 2.1-2.788 2.47h-.16c-1.858-.34-2.788-1.26-2.788-2.77V39.88c0-7.324-3.167-12.146-9.502-14.47-1.545-.39-2.923-.586-4.127-.586h-.43c-5.315 0-9.426 2.738-12.332 8.214-.762 1.668-1.14 4.34-1.14 8.017V56.38c0 1.433-.932 2.306-2.79 2.62h-.155c-1.495 0-2.422-.977-2.788-2.93V22.362c.236-2.244 1.217-3.363 2.944-3.363m46.07-14h.547c1.72.36 2.57 1.12 2.57 2.29v12.82h5.89l1.29-.16c1.33 0 2.22.96 2.69 2.87 0 1.29-.8 2.24-2.41 2.84l-2.14-.16h-5.29v20.94c0 3.65 1.2 5.89 3.59 6.72l3.27.27h1.6c1.25 0 2.06.9 2.42 2.72v.11c-.31 1.81-1.22 2.72-2.72 2.72h-3c-4.54 0-7.92-2.47-10.13-7.42-.39-1.22-.58-2.64-.58-4.27V25.51h-2.84l-2.3.154c-1.62-.57-2.42-1.52-2.42-2.84.31-1.81 1.17-2.71 2.57-2.71v-.16l1.44.158h3.54V8.144C168.79 6.05 169.61 5 171.02 5"/><path d="M189.97 37.263h28.06c0-2.004-1.173-4.59-3.512-7.767-3.2-3.017-6.36-4.528-9.482-4.528h-1.603c-4.683 0-8.532 2.293-11.55 6.872-1.04 1.82-1.677 3.628-1.912 5.423M203.87 19c7.7 0 13.683 3.653 17.952 10.965 1.455 2.862 2.183 5.972 2.183 9.328v.74c-.34 1.95-1.263 2.93-2.77 2.93h-30.79c1.143 3.875 3.616 6.843 7.416 8.897 2.24.858 4.33 1.285 6.28 1.285 2.27 0 4.86-.728 7.77-2.184h.86c1.75.34 2.62 1.23 2.62 2.66v.43c0 2.4-3.5 4.05-10.5 4.96h-1.01c-7.18 0-12.93-3.35-17.25-10.07-1.74-3.17-2.61-6.49-2.61-9.95 0-7.31 3.46-13.13 10.39-17.48 3.36-1.66 6.52-2.5 9.48-2.5m39.91 1c6.77 0 12.08 3.06 15.95 9.17l.12 1.14v.16c0 1.55-.97 2.46-2.92 2.75-1.29 0-2.6-1.11-3.95-3.34-2.71-2.62-5.78-3.93-9.2-3.93-4.5 0-8.05 2.14-10.66 6.41l-.12.75c0 1.29 1.46 2.06 4.39 2.33 11.21 2.7 17.34 4.25 18.4 4.64 2.82 1.84 4.23 4.17 4.23 7v.12c0 4.04-2.97 7.74-8.92 11.1-2.55 1.16-5.27 1.73-8.17 1.73-5.92 0-10.93-2.76-15.04-8.3-.39-.57-.59-1.11-.59-1.61v-.86c0-1.41 1.08-2.24 3.24-2.48.92 0 2.24 1.22 3.95 3.66 2.61 2.42 5.62 3.62 9.04 3.62 4.11 0 7.52-1.94 10.23-5.82l.278-.86v-.16c0-1.26-.87-1.97-2.606-2.16-13.08-2.91-20-4.7-20.767-5.39-2.42-1.83-3.63-4.06-3.63-6.68 0-3.67 2.67-7.21 8.01-10.62 2.95-1.54 5.87-2.32 8.76-2.32m57.34 21.9v.65c0 5.27 2.8 9.2 8.41 11.77 1.505.44 2.86.65 4.07.65h.795c5.22 0 9.16-2.76 11.826-8.28.44-1.66.66-2.95.66-3.86v-.79c0-5.24-2.85-9.17-8.56-11.77-1.74-.43-3.09-.65-4.07-.65h-.52c-5.22 0-9.16 2.72-11.83 8.15-.53 1.53-.79 2.91-.79 4.14M329 11.05h.525c1.57.32 2.36 1.015 2.36 2.087v25.59l.14 4.38c0 3.378-1.403 6.915-4.21 10.61-3.963 4.22-8.43 6.33-13.392 6.33h-1.045c-4.85 0-9.36-2.233-13.53-6.706-2.55-3.56-3.825-7.23-3.825-11.02 0-5.72 2.585-10.55 7.758-14.47 3.3-2.15 6.72-3.22 10.26-3.22 4.57 0 8.86 1.77 12.87 5.3V15.28l-.14-2.054c.48-1.486 1.22-2.226 2.22-2.226m11.4 29.437h25.26c0-1.804-1.05-4.132-3.16-6.99-2.88-2.716-5.72-4.076-8.53-4.076h-1.44c-4.21 0-7.68 2.07-10.39 6.19-.94 1.64-1.51 3.27-1.72 4.88M352.88 24c6.93 0 12.314 3.29 16.155 9.87 1.31 2.58 1.97 5.38 1.97 8.4v.67c-.31 1.76-1.14 2.64-2.492 2.64H340.8c1.028 3.49 3.254 6.16 6.674 8.01 2.01.772 3.896 1.156 5.65 1.156 2.04 0 4.37-.652 6.99-1.962h.773c1.57.306 2.354 1.1 2.354 2.39v.387c0 2.16-3.15 3.65-9.45 4.46h-.91c-6.46 0-11.64-3.02-15.52-9.06C335.78 48.1 335 45.12 335 42c0-6.58 3.115-11.824 9.344-15.73 3.02-1.5 5.86-2.25 8.533-2.25M411.797 4l.738.154h28.925l.584-.154c1.684 0 2.673 1.074 2.956 3.223-.388 1.787-1.463 2.678-3.227 2.678h-27.02v19.89h17.69l2.097-.15c1.32 0 2.205.99 2.647 2.96 0 1.29-.792 2.28-2.372 2.95l-2.956-.15h-17.11v18.87h27.72c1.37 0 2.21 1.04 2.52 3.11-.52 1.76-1.4 2.64-2.65 2.64h-30.56c-1.87-.33-2.8-1.26-2.8-2.79V6.95c.28-1.866 1.21-2.8 2.79-2.8V4zm49.978 16c6.764 0 12.08 3.054 15.946 9.165l.12 1.14v.16c0 1.543-.97 2.462-2.92 2.75-1.28 0-2.6-1.115-3.94-3.342-2.71-2.623-5.78-3.935-9.2-3.935-4.5 0-8.05 2.14-10.66 6.41l-.12.748c0 1.286 1.46 2.058 4.38 2.324 11.22 2.7 17.35 4.247 18.4 4.64 2.82 1.834 4.23 4.166 4.23 7v.118c0 4.037-2.97 7.736-8.92 11.093-2.55 1.16-5.27 1.73-8.17 1.73-5.92 0-10.93-2.76-15.04-8.3-.39-.57-.59-1.11-.59-1.61v-.86c0-1.41 1.08-2.24 3.24-2.48.92 0 2.24 1.22 3.95 3.66 2.61 2.42 5.62 3.62 9.04 3.62 4.11 0 7.52-1.94 10.23-5.82l.28-.86v-.15c0-1.26-.87-1.98-2.6-2.16-13.08-2.91-20-4.7-20.76-5.39-2.42-1.83-3.63-4.06-3.63-6.68 0-3.67 2.67-7.21 8.02-10.62 2.95-1.54 5.87-2.32 8.76-2.32m28.07 19.34v.75c0 5.26 2.58 9.34 7.73 12.25 1.87.96 3.87 1.45 6 1.45h.87c5.55 0 9.79-2.83 12.71-8.5.686-1.79 1.028-3.52 1.028-5.18v-.74c0-4.39-2.04-8.1-6.12-11.11-2.42-1.632-5.15-2.452-8.2-2.452-6.05 0-10.47 3.134-13.26 9.4-.5 1.534-.75 2.926-.75 4.17M504 20c5.152 0 9.822 1.924 14.002 5.77C522 29.93 524 34.596 524 39.773c0 7.406-3.55 13.232-10.65 17.468-3.077 1.54-6.05 2.31-8.92 2.31h-1.18c-4.63 0-9.153-1.98-13.57-5.93v19.92c0 1.23-.972 2.05-2.918 2.46-1.396 0-2.314-.96-2.762-2.88V41.06c0-9.98 4.772-16.715 14.32-20.2 1.183-.363 3.074-.65 5.68-.856m28.97 17.264h28.06c0-2.004-1.173-4.59-3.512-7.767-3.2-3.01-6.36-4.53-9.482-4.53h-1.603c-4.683 0-8.532 2.3-11.55 6.87-1.04 1.82-1.677 3.63-1.912 5.43M546.87 19c7.7 0 13.683 3.653 17.952 10.965 1.455 2.862 2.183 5.972 2.183 9.328v.74c-.34 1.95-1.263 2.93-2.77 2.93h-30.79c1.143 3.875 3.616 6.843 7.416 8.897 2.24.858 4.33 1.285 6.28 1.285 2.27 0 4.86-.728 7.77-2.184h.86c1.75.34 2.62 1.23 2.62 2.66v.43c0 2.4-3.5 4.05-10.5 4.96h-1.01c-7.18 0-12.93-3.35-17.25-10.07-1.74-3.17-2.61-6.49-2.61-9.95 0-7.31 3.46-13.13 10.39-17.48 3.36-1.66 6.52-2.5 9.48-2.5m27.06 0c1.87.47 2.8 1.3 2.8 2.49v3.22c4.28-3.8 8.87-5.7 13.74-5.7 2.63 0 5.42.64 8.37 1.9.78.81 1.17 1.58 1.17 2.33v.16c-.31 1.84-1.23 2.76-2.76 2.76h-.16c-2.67-.85-4.68-1.28-6.03-1.28h-.86c-5.73 0-9.94 2.96-12.61 8.89-.57 1.58-.86 3.38-.86 5.39v17.22c0 1.46-.93 2.33-2.8 2.65h-.15c-1.48 0-2.4-.97-2.77-2.91V22.38c.24-2.25 1.21-3.374 2.92-3.374m28.79 20.708v.432c0 5.81 2.92 10.19 8.76 13.136 1.85.68 3.51 1.014 4.97 1.014h1.14c4.85 0 8.85-2.43 12-7.27 1.15-2.3 1.72-4.49 1.72-6.57v-.59c0-5.6-2.76-9.89-8.29-12.87-1.93-.86-3.92-1.29-5.98-1.29h-.15c-5.89 0-10.32 3.06-13.29 9.19-.57 1.9-.86 3.503-.86 4.81M617.02 20c7.56 0 13.544 3.702 17.95 11.103 1.355 2.998 2.03 6.113 2.03 9.346v16.93c0 1.43-.922 2.3-2.776 2.62h-.155c-1.25 0-2.18-.73-2.78-2.19v-.16l.15-3.64v-.16c-4.3 4.09-8.93 6.14-13.88 6.14h-1.14c-6.78 0-12.43-3.4-16.97-10.21-1.64-3.28-2.46-6.59-2.46-9.93 0-7.43 3.65-13.32 10.95-17.68 3.1-1.46 6.12-2.19 9.07-2.19m26.92 0c1.85.47 2.78 1.3 2.78 2.5v3.21c4.24-3.81 8.88-5.71 13.9-5.71 5.52 0 10.42 2.29 14.69 6.88 3.12 3.84 4.68 7.86 4.68 12.09v18.57c0 1.28-.93 2.1-2.79 2.46h-.16c-1.86-.34-2.79-1.27-2.79-2.78V40.88c0-7.324-3.17-12.146-9.51-14.47-1.54-.39-2.92-.586-4.12-.586h-.43c-5.32 0-9.43 2.738-12.33 8.214-.77 1.668-1.14 4.34-1.14 8.017V57.38c0 1.433-.94 2.306-2.79 2.62h-.16c-1.5 0-2.42-.977-2.79-2.93V23.362c.24-2.244 1.22-3.363 2.94-3.363m43.64 0l1.45.15h25.04l1.33-.16c1.72.52 2.59 1.35 2.59 2.49v.87c0 .6-1.12 2.12-3.34 4.54L693.81 54.3h21.595c1.72.34 2.59 1.21 2.59 2.602v.472c0 1.422-.92 2.29-2.747 2.605h-27.51c-1.538 0-2.454-1.03-2.74-3.08 0-.77 1.97-3.44 5.917-8.03l18.26-23.2H689.78l-2.313.16c-1.647-.58-2.467-1.55-2.467-2.92.31-1.85 1.173-2.77 2.585-2.77V20zm37.13 19.7v.43c0 5.81 2.92 10.19 8.76 13.13 1.85.68 3.5 1.01 4.96 1.01h1.13c4.84 0 8.84-2.43 12-7.27 1.15-2.3 1.72-4.49 1.72-6.57v-.59c0-5.6-2.76-9.89-8.29-12.87-1.93-.86-3.92-1.29-5.98-1.29h-.15c-5.89 0-10.33 3.06-13.3 9.19-.578 1.9-.86 3.5-.86 4.81M739.02 20c7.56 0 13.544 3.702 17.95 11.103 1.355 2.998 2.03 6.113 2.03 9.346v16.93c0 1.43-.922 2.3-2.776 2.62h-.155c-1.25 0-2.18-.73-2.78-2.19v-.16l.15-3.64v-.16c-4.3 4.09-8.93 6.14-13.88 6.14h-1.14c-6.78 0-12.43-3.4-16.97-10.21-1.64-3.28-2.46-6.59-2.46-9.93 0-7.43 3.65-13.32 10.95-17.68 3.1-1.46 6.12-2.19 9.07-2.19"/></g></svg>