<svg width="803" height="327" viewBox="0 0 803 327" xmlns="http://www.w3.org/2000/svg"><title>logo-bridge</title><g fill="none" fill-rule="evenodd"><path d="M409 51s-36.123 107.685-130 166M403 47s-62.62 125.882-164 170M395 43s-85.735 136.077-200 174M386 39S263.61 187.1 135 215M408 51s36.123 107.685 130 166M416 47s62.62 125.882 164 170M424 43s85.735 136.077 200 174M430 39s122.39 148.1 251 176" stroke="#FFF" stroke-width="3.736" stroke-linecap="round"/><path d="M31.56 120.814c8.708-1.378 14.643-10.045 13.233-19.315-1.415-9.27-9.643-15.7-18.353-14.32-8.708 1.38-14.643 10.04-13.233 19.31 1.41 9.27 9.644 15.69 18.353 14.31" fill="#FFF"/><path d="M66.862 95.078c-1.77.272-3.347 1.23-4.44 2.69l-5.364 7.176c-1.06 1.41-3.094 3.726-4.353 4.943l-11.332 10.968-19.06 2.95c-3.223.495-4.74 1.74-5.79 3.66l-6.62 12.057c-1.068 1.952-2.754 5.18-3.752 7.196l-4.37 8.84c-.85 1.72-1 3.688-.42 5.55.58 1.856 1.82 3.378 3.49 4.286 1.34.726 2.83.99 4.31.76 2.21-.34 4.12-1.763 5.14-3.81l4.38-8.838c.02-.045.05-.1.07-.144l.97 13.988-2.24 49.515c-.09 2.047.59 4.02 1.92 5.554 1.34 1.53 3.16 2.44 5.13 2.56.52.03 1.04.01 1.54-.07 3.43-.53 6.04-3.53 6.2-7.14l2.1-46.34 2.37-.37 3.66 14.96c.45 1.8 1.02 4.99 1.24 6.82l2.52 21.18c.24 2.03 1.23 3.86 2.79 5.15 1.57 1.28 3.5 1.86 5.46 1.64.1-.02.19-.03.28-.04 3.95-.61 6.65-4.32 6.16-8.44l-2.53-21.16c-.29-2.48-.99-6.32-1.59-8.74l-5.48-22.38c-.01-.06-.03-.12-.05-.18L47.46 135l14.892-14.41c1.78-1.72 4.34-4.634 5.84-6.63l5.36-7.177c2.36-3.152 1.78-7.736-1.29-10.225-1.53-1.238-3.5-1.78-5.4-1.486M128.12 117c7.166-.06 12.944-7.287 12.88-16.106-.07-8.823-5.957-15.953-13.123-15.894-7.167.06-12.94 7.287-12.876 16.11.07 8.82 5.96 15.95 13.12 15.89" fill="#FFF"/><path d="M142.636 151.128c1.092 1.685 2.84 2.68 4.664 2.67 1.23-.014 2.4-.466 3.39-1.31 1.232-1.057 2.028-2.6 2.25-4.348.22-1.747-.167-3.495-1.084-4.91l-4.73-7.288c-1.076-1.66-2.872-4.304-4.002-5.898l-6.97-9.85c-1.11-1.568-2.345-2.46-4.512-2.443l-17.09.14-10.643-8.18c-1.28-.98-2.94-2.46-3.57-3.14l-1.68-1.79c-1.08-1.15-2.49-1.77-3.96-1.76-1.58.02-3.1.79-4.17 2.12-1.05 1.3-1.59 2.98-1.53 4.75.06 1.77.71 3.4 1.84 4.61l1.68 1.79c1.14 1.22 3.29 3.13 4.99 4.44l13.99 10.76 1.94 22.53c-.01.06-.02.11-.02.17l-1.45 20.85c-.22 3.06.38 7.33 1.41 10.17l4.93 13.53c.95 2.63 3.17 4.31 5.65 4.3.79-.01 1.56-.19 2.29-.54 1.49-.72 2.65-2.06 3.26-3.78.61-1.72.6-3.62-.02-5.34l-4.93-13.53c-.29-.78-.57-2.8-.51-3.65l.97-13.94 1.97-.01 3 15.69c.55 2.9 2.15 5.36 4.37 6.75 1.28.807 2.74 1.22 4.21 1.21 1.05-.01 2.09-.24 3.08-.66l6.33-2.73c3.13-1.35 4.72-5.38 3.54-8.98-.9-2.73-3.2-4.56-5.73-4.54-.72.01-1.42.16-2.09.447L141 170.6l-2.71-14.15-1.17-13.71c.27.42.54.81.75 1.15l4.73 7.29zM87.73 89c.22-.004.435-.032.636-.084 1.116-.284 1.908-1.244 1.86-2.368-.14-3.148.442-8.13 1.903-9.303 1.07-.86 1.16-2.38.21-3.395-.95-1.012-2.6-1.14-3.68-.276-3.88 3.11-3.72 11.426-3.65 13.062.06 1.332 1.26 2.388 2.7 2.364m-11.78-1.963c-1.41-.24-2.72.706-2.93 2.118-.21 1.412.76 2.75 2.16 2.99 1.9.328 5.3 4.59 7.03 7.54.61 1.056 1.84 1.53 2.94 1.224.2-.06.4-.14.58-.25 1.22-.71 1.62-2.29.89-3.54-.9-1.54-5.61-9.22-10.69-10.1m646.34 75.13c.19-1.44.25-2.9.3-4.35.06-1.44.08-2.88.09-4.32.02-3.1-.06-6.2-.18-9.29-.22-5.76-.6-11.5-1.07-17.24-.22-2.62-.44-5.23-.72-7.84 5.96-4.12 11.34-9.55 15.23-16.15 1.6-2.73 2.91-5.6 4.01-8.63.9-2.4 1.43-4.96 1.93-7.49.474-2.47-.87-5.03-3.02-5.7-2.14-.68-4.43.7-5.15 3.08-.404 1.35-.79 2.71-1.32 4-.8 1.95-1.73 3.78-2.795 5.56-1.845 3.09-4.274 5.79-6.875 8.07-2.98 2.61-6.3 4.75-9.79 6.36-4.59 1.77-8.362 1.92-14.27.7-6.91-1.46-13.78-4.85-18.92-10.38-1.405-1.51-2.634-3.16-3.79-4.92-.775-1.18-1.41-2.488-2.06-3.76-1.14-2.21-3.7-3.01-5.69-1.798-1.925 1.18-2.75 3.92-1.864 6.185.53 1.363 1.09 2.71 1.69 4.04.86 1.922 1.94 3.73 3.07 5.462 2.28 3.52 5.08 6.57 8.12 9.25 3.754 3.31 8.05 5.89 12.47 7.84.094 2.68.184 5.37.28 8.06.186 5.61.37 11.22.545 16.83.09 2.75.17 5.51.25 8.26.08 3.014.027 6.086.51 9.06.25 1.53.655 3.04 1.31 4.42.054 8.7-.51 17.42-1.39 26.05-.45 4.41-.972 8.8-1.572 13.18-.54 3.93-1.204 7.84-1.86 11.75-.045.26-.086.52-.13.773-.51 3.08 1.28 6.15 3.97 6.85 2.646.684 5.386-1.13 6.16-4.076.867-3.284 1.72-6.573 2.537-9.875 1.04-4.22 1.95-8.474 2.845-12.74 1.6-7.614 2.87-15.36 3.81-23.12.65-.06 1.29-.18 1.92-.34 2.37 8.466 3.48 17.394 3.44 26.264-.024 6.02-.6 11.97-1.506 17.895-.45 3.08 1.38 6.1 4.07 6.75 2.683.64 5.42-1.27 6.12-4.28.764-3.27 1.45-6.55 2.025-9.87.75-4.295 1.18-8.66 1.442-13.026.27-4.63.32-9.33-.04-13.958-.53-8.01-1.83-15.983-4.15-23.58" fill="#FFF"/><path d="M698.31 104.374c2.276 1.71 4.97 2.626 7.697 2.626 5.397 0 10.427-3.666 12.707-9.255 2.31-5.665 1.453-12.54-2.132-17.25-3.58-4.703-9.38-6.625-14.606-4.832-5.114 1.752-9.006 6.855-9.817 12.884-.83 6.143 1.6 12.407 6.15 15.827M772 151c.146 0 .292-.004.438-.008 3.49-.15 6.712-2.176 8.374-5.24 1.69-3.126 1.568-7.02-.307-10.032-1.86-2.978-5.215-4.793-8.725-4.718-3.494.075-6.763 2.03-8.492 5.07-1.753 3.084-1.714 6.983.102 10.033 1.792 3.006 5.105 4.895 8.61 4.895" fill="#FFF"/><path d="M796.82 145.35c-2.426 2.023-5.025 3.906-7.988 5.164-23.248 9.882-33.643-6.078-36.757-10.9-.895-1.56-1.394-2.874-1.938-4.533-.56-1.6-2.356-2.46-4-1.91.41-.13.845-.28-.005 0-.736.25-.39.13-.008.01-1.528.52-2.39 2.08-2.05 3.59.024.1.05.21.07.31 1.068 4.63 3.17 8.86 6.274 12.52 3.2 3.77 7.282 6.85 11.722 9.1l-.72 17.03-5.947 22.7c-.113.58.038 1.17.423 1.62.38.46.946.72 1.548.72h4.232l-1.013 22.33c-.092 2.02 1.523 3.79 3.582 3.94 2.022.15 3.863-1.32 4.13-3.28l3.085-22.98h2.005l4.444 23.17c.37 1.94 2.28 3.31 4.29 3.06 2.04-.25 3.55-2.1 3.37-4.1l-2.09-22.13h4.17c.6 0 1.17-.26 1.55-.72.38-.45.53-1.04.41-1.62l-6.92-23.12.55-15.11c3.8-.475 7.31-1.99 10.53-3.976 1.56-.996 2.99-2.12 4.36-3.353 1.07-.97 2.04-2 3.02-3.05 1.07-1.14 1.09-2.94.04-4.1-1.12-1.24-3.12-1.39-4.41-.32" fill="#FFF"/><path d="M711 216.278C593.158 170.268 429.26 27.015 436.222 28.395c0-10.747-15.876-17.395-28.36-17.395-12.48 0-26.668 8.012-26.668 17.395C386.46 27.71 207.854 183.77 101 218" stroke="#FFF" stroke-width="17.959" stroke-linecap="round"/><path d="M13 225h778" stroke="#FFF" stroke-width="11.972" stroke-linecap="round"/><path d="M437 27c0 6.628-12.535 12-27.998 12C393.54 39 381 33.628 381 27s12.54-12 28.002-12C424.465 15 437 20.372 437 27" fill="#FFF"/><path d="M445.253 126.98l-16.72 18.384-18.403-20.294-18.466 20.364-18.404-20.294L373 311l18.433-.033 18.437-.037 18.433-.033 18.437-.037-1.487-183.88z" stroke="#FFF" stroke-width="3.326"/><path d="M391 145.31L373.25 125 373 311l17.777-.037L391 145.31z" stroke="#FFF" stroke-width="3.326"/><path d="M245.5 306.977c14.054 11.54 46.194 11.59 55.23-6.164 16.633 15.964 36.93 12.933 55.118-1.813 10.214 14.4 36.478 18.28 53.575 0 11.454 17.13 39.237 15.78 51.833 1.273 15.553 17.883 38.285 16.93 54.963-.003 8.09 6.94 21.17 13.933 31.69 14.535 12.29.703 20.61-.918 30.59-7.87" stroke="#FFF" stroke-width="16.628"/><path d="M410 127.5v165m18.663-148v165" stroke="#FFF" stroke-width="3.326" stroke-linecap="square" fill="#FFF"/><path d="M393 89.972l15.515-.03 15.515-.032L408.564 57 393 89.972z" fill="#FFF"/></g></svg>