<svg width="482" height="295" viewBox="0 0 482 295" xmlns="http://www.w3.org/2000/svg"><title>Artboard 1</title><defs><linearGradient x1="28.909%" y1="42.97%" x2="57.03%" y2="71.091%" id="a"><stop stop-color="#FFF" offset="0%"/><stop stop-color="#FFDD7C" offset="100%"/></linearGradient></defs><g fill="none" fill-rule="evenodd"><g fill="#000"><path d="M129.8 101.877c4.785-1.372 7.512-6.552 6.08-11.546-1.432-4.994-6.49-7.94-11.274-6.57-4.786 1.373-7.515 6.553-6.082 11.547 1.432 4.995 6.49 7.942 11.276 6.57z"/><path d="M146.817 86.386c-.94.27-1.726.895-2.218 1.763l-2.412 4.258c-.475.84-1.417 2.233-2.015 2.982l-5.38 6.724-10.106 2.898c-1.708.49-2.443 1.268-2.882 2.383l-2.754 6.996c-.445 1.133-1.135 3-1.538 4.16l-1.764 5.098c-.343.992-.29 2.072.15 3.04.438.97 1.21 1.713 2.176 2.09.774.305 1.598.346 2.382.12 1.167-.333 2.108-1.237 2.516-2.415l1.764-5.097.03-.084 1.476 7.528 2.172 27.032c.09 1.118.593 2.142 1.418 2.884.824.742 1.87 1.114 2.946 1.046.28-.018.56-.065.827-.142 1.82-.522 3.024-2.328 2.866-4.296l-2.032-25.297 1.257-.36 3.003 7.874c.36.946.89 2.638 1.135 3.622l2.81 11.326c.27 1.09.93 2.015 1.86 2.605.93.59 2.02.775 3.064.52l.15-.04c2.09-.6 3.298-2.795 2.752-4.998l-2.81-11.326c-.328-1.326-.966-3.363-1.453-4.64l-4.49-11.773c-.013-.03-.03-.06-.042-.093l-2.626-13.388 7.07-8.84c.844-1.056 2.032-2.812 2.704-4l2.41-4.258c1.06-1.87.433-4.322-1.396-5.463-.91-.57-2.012-.73-3.02-.44zM177.722 90.84c3.89.97 7.986-1.966 9.128-6.544 1.14-4.578-1.096-9.09-4.988-10.062-3.89-.97-7.984 1.965-9.125 6.543-1.142 4.578 1.095 9.092 4.985 10.062z"/><path d="M180.972 110.67c.345 1.036 1.125 1.797 2.085 2.036.647.162 1.323.082 1.955-.23.79-.39 1.418-1.095 1.77-1.986.354-.892.388-1.863.098-2.734l-1.49-4.477c-.34-1.02-.922-2.658-1.298-3.65l-2.32-6.13c-.37-.975-.895-1.614-2.036-1.898l-8.98-2.24-4.472-5.75c-.535-.686-1.204-1.694-1.446-2.137l-.638-1.17c-.41-.752-1.062-1.273-1.835-1.466-.83-.208-1.734-.007-2.477.55-.723.54-1.236 1.355-1.444 2.294-.208.938-.086 1.888.342 2.674l.638 1.17c.436.798 1.304 2.094 2.02 3.014l5.877 7.558-2.044 12.135c-.01.03-.023.057-.033.086l-3.59 10.787c-.527 1.58-.795 3.912-.638 5.543l.75 7.794c.144 1.514 1.08 2.702 2.38 3.027.414.104.843.113 1.274.026.88-.175 1.67-.726 2.227-1.55.556-.826.81-1.826.714-2.816l-.748-7.795c-.043-.453.083-1.55.23-1.99l2.4-7.214 1.035.26-.555 8.668c-.103 1.603.398 3.115 1.374 4.148.563.595 1.27 1.012 2.046 1.205.553.14 1.127.163 1.707.072l3.69-.58c1.824-.288 3.204-2.195 3.074-4.252-.098-1.56-1.06-2.83-2.39-3.163-.375-.093-.764-.11-1.155-.048l-1.575.247.5-7.82 1.245-7.383c.09.258.172.5.24.71l1.492 4.477zM153.207 78.29c.112-.002.22-.02.322-.048.56-.16.958-.703.932-1.34-.073-1.775.217-4.59.952-5.25.54-.486.59-1.344.107-1.916-.48-.572-1.31-.642-1.85-.155-1.956 1.76-1.867 6.454-1.83 7.377.032.752.643 1.348 1.367 1.333zM146.42 76.51c-.715-.126-1.38.373-1.487 1.113-.105.74.39 1.443 1.107 1.57.968.17 2.707 2.402 3.59 3.948.315.553.94.8 1.5.64.103-.03.203-.072.3-.13.62-.37.823-1.2.45-1.853-.456-.803-2.868-4.83-5.46-5.287z"/></g><g fill="#000"><path d="M59.71 140.99c-1.984.645-4.196.367-6.016-.754-1.836-1.13-3.15-3.05-3.57-5.205-.413-2.112.073-4.327 1.306-6.017 1.264-1.732 3.25-2.81 5.367-2.92 2.055-.106 4.124.715 5.62 2.22 1.542 1.553 2.39 3.765 2.286 5.96-.1 2.122-1.084 4.128-2.67 5.44-.688.57-1.48 1.004-2.324 1.278z"/><path d="M37.68 132.07c.72-.99 2.09-1.166 3.064-.397 0 0 9.827 8.203 12.946 10.242 2.327 1.52 4.093 1.583 6.36.467 1.12-.552 14.455-9.06 14.455-9.06.938-.59 2.21-.328 2.894.593.66.89.603 2.168-.134 2.953-.067.072-.14.138-.215.2L63.23 148.266c.002.314-.062 2.752.243 5.184.194 1.546.558 3.07.96 4.576.28 1.057.632 2.09.98 3.127.36 1.067.534 2.17.448 3.29.474 1.342.98 2.672 1.53 3.985.6 1.437 1.298 2.832 2.004 4.22.892 1.752 1.58 2.313 1.627 2.352.638.04 1.3-.26 1.86-.53.67-.325 1.305-.722 1.915-1.15.537-.376 1.056-.777 1.56-1.2.4-.334.78-.69 1.168-1.04.18-.162.357-.333.572-.46.22-.133.462-.23.71-.29.496-.118 1.024-.086 1.51.09 1.012.373 1.745 1.36 1.83 2.46.06.78-.204 1.553-.72 2.108-1.65 1.813-3.493 3.508-5.59 4.756-1.134.675-2.36 1.225-3.67 1.443-1.358.227-2.775.06-4.028-.597-.3-.157-.588-.342-.86-.546v.002c.005.003.01.006.012.01-.16-.146-.344-.267-.508-.406-.28-.236-.548-.487-.806-.748-.517-.523-.996-1.086-1.45-1.668-.908-1.17-1.722-2.415-2.487-3.687-.503-.835-.984-1.683-1.45-2.54-.357.098-.72.17-1.088.21-.192 1.54-.33 3.086-.37 4.64 1.493.11 2.663 1.52 2.543 3.056-.08 1.04-.256 2.067-.66 3.022-.44 1.04-1.127 1.957-2.048 2.58-.504.34-1.07.583-1.67.677-1.207.184-2.47-.435-3.082-1.628-1.322-2.57-1.802-5.478-2.066-8.323-.144-1.54-.21-3.088-.227-4.633-.01-1.01-.012-2.027.043-3.036.01-.2.018-.4.033-.6-.28-.568-.48-1.164-.63-1.78-.146-.614-.302-1.228-.437-1.846-.32-1.46-.59-2.937-.79-4.42-.414-3.085-.6-6.206-.39-9.302.056-.84.14-1.68.264-2.51l-12.074-12.034c-.802-.797-.93-2.09-.264-3.01.72-.987-.668.92 0 0z"/></g><g stroke="#000" stroke-width="2"><path d="M60.737.834l-51 50.832L.094 84.93l3.025-.872 30.347-8.743 51-50.832-4.605-4.59-1.613-1.607-4.302-4.288-.538-.536-1.613-1.608-.538-.536-4.3-4.287-1.615-1.607-2.452-2.446-2.15-2.143z" fill="url(#a)" transform="rotate(135 109.235 153.688)"/><path d="M251.612 227.48l.118-72.006-8.388 7.89-8.362-7.863-8.387 7.89-8.362-7.86-.117 72.004 8.375-.014 8.375-.013 8.374-.014 8.375-.014z" fill="#FFC700"/><path d="M251.612 227.48l.118-72.006-8.388 7.89-.105 64.13 8.375-.015z" fill="#FFDA00"/><path d="M226.593 163.39l-8.362-7.86-.117 72.004 8.375-.014.105-64.13z" fill="#FF8A00"/><path d="M234.98 155.5l-8.387 7.89-.105 64.13 8.375-.013.117-72.006z" fill="#FFA100"/></g><path d="M228.43 137.077l6.58-.01 6.583-.01-6.563-11.924-6.6 11.944z" fill="#000"/><path d="M235.01 137.067l4.38-.01-4.36-11.924-.02 11.934z" opacity=".8" fill="#FFF"/><g fill="#000"><path d="M191.91 233.047c4.435-2.932 10.266-6.07 11.875-6.07.816 0 2.782 1.566 4.083 2.603 2.4 1.91 4.88 3.888 7.643 3.888 2.59 0 5.136-1.762 7.83-3.628 1.912-1.322 4.29-2.968 5.6-2.968 1.337 0 3.71 1.716 5.615 3.095 2.518 1.822 4.897 3.542 7.28 3.542 2.392 0 4.606-1.705 6.95-3.51 1.942-1.495 4.144-3.19 5.682-3.19 1.527 0 3.73 1.67 5.67 3.142 2.4 1.82 4.663 3.536 7.12 3.536 3.95 0 11.676-5.353 13.95-6.993 1.18-.853 1.477-2.543.66-3.776-.816-1.234-2.436-1.543-3.618-.69-4.037 2.912-9.418 6.03-10.993 6.03-.767 0-2.75-1.503-4.062-2.498-2.583-1.96-5.51-4.18-8.728-4.18-3.25 0-6.182 2.258-8.77 4.25-1.186.914-3.172 2.443-3.86 2.45-.76 0-2.988-1.613-4.32-2.576-2.76-1.996-5.614-4.06-8.577-4.06-2.878 0-5.723 1.967-8.474 3.872-1.66 1.15-3.935 2.723-4.956 2.723-1.004 0-3.017-1.603-4.487-2.774-2.293-1.828-4.665-3.717-7.24-3.717-3.9 0-12.206 5.29-14.658 6.912-1.213.802-1.573 2.48-.805 3.745.77 1.265 2.376 1.64 3.59.84zM267.04 236.38c-.585-.884-1.747-1.105-2.594-.494-2.896 2.09-6.755 4.326-7.885 4.326-.548 0-1.97-1.08-2.912-1.793-1.852-1.406-3.952-3-6.26-3-2.33 0-4.434 1.62-6.29 3.05-.85.656-2.275 1.752-2.77 1.757-.545 0-2.142-1.157-3.097-1.847-1.978-1.433-4.026-2.914-6.15-2.914-2.065 0-4.105 1.412-6.08 2.778-1.19.824-2.82 1.953-3.553 1.953-.72 0-2.164-1.15-3.218-1.99-1.646-1.31-3.348-2.666-5.193-2.666-2.798 0-8.756 3.796-10.515 4.96-.87.575-1.128 1.777-.577 2.685.55.908 1.703 1.178 2.574.603 3.18-2.102 7.362-4.354 8.517-4.354.584 0 1.995 1.124 2.928 1.867 1.72 1.373 3.5 2.79 5.482 2.79 1.856 0 3.682-1.264 5.616-2.602 1.37-.948 3.076-2.13 4.016-2.13.958 0 2.66 1.232 4.026 2.22 1.806 1.308 3.512 2.542 5.222 2.542 1.715 0 3.303-1.223 4.984-2.517 1.394-1.073 2.972-2.288 4.076-2.288 1.095 0 2.674 1.197 4.067 2.254 1.72 1.303 3.344 2.535 5.106 2.535 2.833 0 8.375-3.84 10.007-5.016.847-.613 1.06-1.825.474-2.71z"/></g><ellipse stroke="#000" fill="#000" cx="235" cy="125.5" rx="10" ry="6.5"/><g fill="#000"><path d="M322.752 115.893c.106-.768.135-1.553.166-2.33.03-.77.044-1.54.048-2.313.008-1.66-.03-3.322-.094-4.982-.118-3.085-.322-6.166-.576-9.24-.115-1.402-.237-2.803-.384-4.2 3.213-2.207 6.116-5.12 8.214-8.66.866-1.46 1.57-3.002 2.162-4.626.487-1.285.77-2.66 1.043-4.018.26-1.324-.466-2.694-1.626-3.057-1.153-.36-2.39.38-2.78 1.653-.218.722-.427 1.452-.713 2.144-.43 1.047-.932 2.028-1.506 2.983-.996 1.66-2.305 3.11-3.708 4.33-1.608 1.402-3.396 2.55-5.28 3.41-2.473.946-4.51 1.027-7.698.375-3.723-.778-7.43-2.598-10.2-5.56-.758-.81-1.422-1.697-2.044-2.64-.42-.633-.76-1.33-1.112-2.012-.616-1.187-1.996-1.617-3.07-.965-1.037.63-1.48 2.1-1.004 3.316.287.734.586 1.453.91 2.168.464 1.03 1.05 2 1.655 2.93 1.234 1.89 2.743 3.522 4.382 4.96 2.026 1.776 4.34 3.158 6.727 4.205.05 1.44.1 2.88.148 4.32.1 3.01.2 6.018.296 9.027.046 1.477.09 2.955.133 4.433.045 1.615.014 3.262.273 4.856.133.822.353 1.63.705 2.37.03 4.66-.273 9.336-.747 13.965-.24 2.36-.525 4.714-.85 7.063-.29 2.11-.648 4.206-1.003 6.302l-.07.414c-.274 1.653.69 3.298 2.142 3.672 1.425.368 2.903-.606 3.32-2.184.47-1.762.928-3.525 1.368-5.297.56-2.262 1.053-4.544 1.536-6.83.862-4.083 1.547-8.236 2.053-12.395.353-.035.7-.096 1.038-.182 1.28 4.538 1.872 9.323 1.853 14.08-.014 3.23-.326 6.42-.815 9.596-.24 1.65.746 3.268 2.197 3.614 1.447.345 2.922-.683 3.3-2.293.41-1.755.782-3.512 1.093-5.293.4-2.304.638-4.645.777-6.986.148-2.48.17-5-.02-7.48-.283-4.295-.984-8.568-2.238-12.643z"/><path d="M325.005 128.536c.224.573-.096-.288 0 0zM309.196 84.353c1.255.932 2.742 1.43 4.244 1.43 2.978 0 5.753-1.995 7.01-5.037 1.273-3.083.802-6.822-1.177-9.386-1.975-2.557-5.173-3.604-8.057-2.63-2.82.955-4.967 3.73-5.414 7.01-.455 3.344.888 6.754 3.394 8.613zM352.307 106.196c.472.09.95.134 1.43.134 1.948 0 3.846-.76 5.253-2.107 1.4-1.34 2.247-3.192 2.338-5.127.093-1.953-.58-3.895-1.868-5.366-1.27-1.452-3.076-2.382-4.997-2.564-1.953-.185-3.933.4-5.466 1.625-1.5 1.2-2.51 2.957-2.782 4.86-.278 1.948.218 3.96 1.376 5.55 1.13 1.55 2.834 2.637 4.717 2.996z"/><path d="M372.674 94.588c-1.123-.287-2.313.358-2.69 1.454-.31.91-.628 1.827-1.09 2.676-.635 1.168-1.362 2.277-2.256 3.265-1.82 2.013-4.05 3.603-6.497 4.767-.74.353-1.513.676-2.294.934-2.538.784-5.303.76-7.85.024-1.158-.336-2.28-.87-3.34-1.44-1.206-.647-2.348-1.4-3.414-2.256-1.41-1.133-2.627-2.483-3.625-3.988-.82-1.236-1.376-2.596-1.852-3.993-.394-1.134-1.656-1.765-2.8-1.41-1.107.345-1.782 1.517-1.53 2.646.223.987.474 1.952.804 2.908.433 1.26 1.02 2.484 1.708 3.626 1.41 2.343 3.23 4.415 5.34 6.156 1.568 1.295 3.267 2.428 5.07 3.366-.073.703-.032 1.413-.015 2.118l.08 3.27c.066 2.74.132 5.478.2 8.217.043 1.826-.082 3.773.61 5.496l-2.567 27.56c-.13 1.446.925 2.79 2.364 2.997 1.447.21 2.842-.79 3.114-2.226l4.017-21.244 2.796 21.11c.196 1.447 1.534 2.524 2.99 2.395 1.456-.128 2.585-1.42 2.52-2.88l-1.23-27.582c.405-.96.62-2.02.594-3.132l-.118-4.867c-.066-2.714-.13-5.428-.197-8.14-.025-1.028.006-2.077-.104-3.1 2.488-1.293 4.857-2.958 6.823-4.963 1.65-1.607 3.035-3.492 4.118-5.522.937-1.757 1.536-3.626 1.968-5.562.258-1.172-.48-2.38-1.644-2.678zM367.308 93.694c-.255.26.26-.253 0 0zM286.728 101.323c.082 0 .163 0 .245-.005 1.95-.084 3.753-1.216 4.68-2.932.946-1.747.878-3.928-.172-5.613-1.036-1.665-2.913-2.682-4.874-2.64-1.955.042-3.782 1.137-4.747 2.837-.98 1.727-.96 3.908.056 5.615 1 1.683 2.854 2.738 4.812 2.738z"/><path d="M298.528 98.208c-1.276 1.088-2.644 2.104-4.203 2.783-12.23 5.327-17.7-3.276-19.338-5.874-.47-.84-.732-1.55-1.018-2.443-.298-.867-1.24-1.328-2.108-1.033.216-.074.446-.153-.002 0-.387.133-.203.07-.003.002-.804.277-1.257 1.12-1.08 1.932l.04.167c.558 2.497 1.664 4.775 3.3 6.747 1.683 2.03 3.83 3.69 6.166 4.903l-.38 9.177-3.127 12.23c-.06.31.02.628.22.873.202.244.5.384.815.384h2.227l-.53 12.033c-.05 1.086.8 2.043 1.884 2.123 1.063.078 2.032-.713 2.173-1.768l1.624-12.388h1.054l2.338 12.49c.196 1.047 1.203 1.783 2.26 1.65 1.073-.137 1.87-1.133 1.774-2.21l-1.1-11.93h2.195c.317 0 .613-.14.814-.384.202-.244.283-.562.222-.878l-3.64-12.462.292-8.145c2.004-.256 3.848-1.07 5.545-2.142.823-.537 1.572-1.144 2.294-1.81.567-.52 1.073-1.074 1.592-1.642.56-.615.57-1.584.02-2.21-.59-.668-1.637-.748-2.318-.172z"/></g><g fill="#000"><path d="M450.443 82.347c-2.51 3.553-1.637 9.187-.066 11.497-.355.302-2.01 1.21-2.01 1.21-.437.135-.49.464-.116.73l.596.425s.207.154.082.33c-1.208 1.71-11.222 16.153-15.645 22.535-.907 1.19-.732.134-.613-.527l2.348-12.97c.04-.212.33-.166.33-.166l.682.125c.45.082.648-.185.44-.594 0 0-.49-1.81-.61-2.08 2.845-.644 7.428-3.99 8.207-8.293.888-4.9-1.92-8.84-6.123-9.607-4.203-.767-8.21 1.927-9.098 6.828-.776 4.287 2.39 9.02 4.788 10.445-.195.424-1.312 1.95-1.312 1.95-.34.31-.247.63.203.712l.718.13s.253.054.214.267c-.353 1.95-2.187 12.295-3.13 17.29-.045.238-.824.65-1.316 1.298-.442.582-4.442 7.094-10.186 8.062h-14.102c-4.18-.705-7.79-4.067-8.8-6.592-.445-1.116-1.7-.806-2.28-2.06l-2.39 2.245c.957 2.063.48 2.417 1.39 3.793 1.97 2.98 4.296 6.048 6.674 7.47 3.84 2.34 3.902 1.292 4.267 4.68l-.062 2.27-1.27 9.53c-.077.573.19 1.07.643 1.31.1.052.32.114.318.447l-.595 21.608c-.054.203 0 1.63.115 1.685.373 1.198 1.457 2.11 2.818 2.11 1.3 0 2.438-.817 2.872-1.96-.06-.04 2.938-20.938 3.353-20.938.545 0 3.353 20.94 3.353 20.94.488 1.14 1.57 1.957 2.872 1.957 1.368 0 2.438-.912 2.872-2.11 0-.054.11-1.482 0-1.685l-.56-21.653c-.026-.31.228-.382.33-.444.412-.25.65-.725.58-1.268l-1.18-8.848-.078-2.954c.366-3.386.474-2.34 4.268-4.678 3.91-2.34 7.912-10.195 8.097-11.263.21-1.202-.424-1.684-.033-2.245 2.845-4.08 16.57-23.905 17.93-25.83.123-.176.933.392.933.392.373.266.665.108.65-.352 0 0 .32-1.847.323-2.143 2.85.626 8.413-.457 10.932-4.024 2.87-4.064 1.987-8.825-1.497-11.307-3.485-2.483-8.25-1.746-11.122 2.317z"/><path d="M411.772 129.33c4.125 0 7.472-3.375 7.472-7.51 0-4.175-3.347-7.51-7.472-7.51-4.18 0-7.532 3.335-7.532 7.51 0 4.135 3.353 7.51 7.532 7.51z"/></g><path d="M39.754 193.117l195.21-67.14s103.02 31.406 154.528 47.11c13.732 4.185 27.464 8.37 41.196 12.558" stroke="#000" stroke-width="5"/><path d="M47.636 202.664l187.852-75.867 193.324 68.78" stroke="#000" stroke-width="3"/><path d="M57.254 210.863L237.26 125.31l184.77 80.51" stroke="#000" stroke-width="3"/><path d="M69.88 217.5l167.054-91.94 179.64 91.94" stroke="#000" stroke-width="3"/></g></svg>